HIERARCHY
ROOT Hips
{
 OFFSET 0.000000 0.000000 0.000000
 CHANNELS 6 Xposition Yposition Zposition Yrotation Xrotation Zrotation
 JOINT Chest
 {
  OFFSET 0.000000 9.303000 0.001900
  CHANNELS 3 Yrotation Xrotation Zrotation
  JOINT Chest2
  {
   OFFSET 0.000000 9.301100 -0.003900
   CHANNELS 3 Yrotation Xrotation Zrotation
   JOINT Chest3
   {
    OFFSET 0.000000 9.262800 0.000000
    CHANNELS 3 Yrotation Xrotation Zrotation
    JOINT Chest4
    {
     OFFSET 0.000000 9.253300 0.000000
     CHANNELS 3 Yrotation Xrotation Zrotation
     JOINT Neck
     {
      OFFSET 0.000000 14.010300 0.000000
      CHANNELS 3 Yrotation Xrotation Zrotation
      JOINT Head
      {
       OFFSET 0.000000 8.657600 -0.008300
       CHANNELS 3 Yrotation Xrotation Zrotation
       End Site
       {
        OFFSET 0.000000 16.540200 -0.004400
       }
      }
     }
     JOINT RightCollar
     {
      OFFSET -2.834100 9.267700 0.000000
      CHANNELS 3 Yrotation Xrotation Zrotation
      JOINT RightShoulder
      {
       OFFSET -13.135200 0.000000 0.000000
       CHANNELS 3 Yrotation Xrotation Zrotation
       JOINT RightElbow
       {
        OFFSET 0.000000 -28.893500 0.000000
        CHANNELS 3 Yrotation Xrotation Zrotation
        JOINT RightWrist
        {
         OFFSET 0.000000 -23.344000 0.000000
         CHANNELS 3 Yrotation Xrotation Zrotation
         End Site
         {
          OFFSET 0.000000 -17.223000 0.000000
         }
        }
       }
      }
     }
     JOINT LeftCollar
     {
      OFFSET 2.834100 9.267700 0.000000
      CHANNELS 3 Yrotation Xrotation Zrotation
      JOINT LeftShoulder
      {
       OFFSET 13.135200 0.000000 0.000000
       CHANNELS 3 Yrotation Xrotation Zrotation
       JOINT LeftElbow
       {
        OFFSET 0.000000 -28.893500 0.000000
        CHANNELS 3 Yrotation Xrotation Zrotation
        JOINT LeftWrist
        {
         OFFSET 0.000000 -23.344000 0.000000
         CHANNELS 3 Yrotation Xrotation Zrotation
         End Site
         {
          OFFSET 0.000000 -17.223000 0.000000
         }
        }
       }
      }
     }
    }
   }
  }
 }
 JOINT RightHip
 {
  OFFSET -7.547200 -0.009500 -0.001000
  CHANNELS 3 Yrotation Xrotation Zrotation
  JOINT RightKnee
  {
   OFFSET 0.000000 -39.762800 0.000900
   CHANNELS 3 Yrotation Xrotation Zrotation
   JOINT RightAnkle
   {
    OFFSET 0.000000 -38.588200 0.001600
    CHANNELS 3 Yrotation Xrotation Zrotation
    JOINT RightToe
    {
     OFFSET 0.000000 -4.693300 10.419700
     CHANNELS 3 Yrotation Xrotation Zrotation
     End Site
     {
      OFFSET 0.000000 -1.379900 5.669300
     }
    }
   }
  }
 }
 JOINT LeftHip
 {
  OFFSET 7.547200 -0.009500 -0.001000
  CHANNELS 3 Yrotation Xrotation Zrotation
  JOINT LeftKnee
  {
   OFFSET 0.000000 -39.762800 0.000900
   CHANNELS 3 Yrotation Xrotation Zrotation
   JOINT LeftAnkle
   {
    OFFSET 0.000000 -38.588200 0.001600
    CHANNELS 3 Yrotation Xrotation Zrotation
    JOINT LeftToe
    {
     OFFSET 0.000000 -4.693300 10.419700
     CHANNELS 3 Yrotation Xrotation Zrotation
     End Site
     {
      OFFSET 0.000000 -1.379900 5.669300
     }
    }
   }
  }
 }
}
MOTION
Frames: 7
Frame Time: 0.008333
0.000000 82.880600 0.000000 0.000000 -5.767877 0.000000 0.000000 11.653817 0.000000 0.000000 -5.885947 0.000000 0.000000 -0.000000 0.000000 0.000000 -0.000000 0.000000 0.000000 12.528835 0.000000 0.000000 0.711642 0.000000 0.000000 -0.000000 0.000000 0.000000 0.000000 -90.000000 0.000000 -2.309062 0.000000 0.000000 2.309062 0.000000 0.000000 -0.000000 0.000000 0.000000 -0.000000 90.000000 0.000000 -2.309062 0.000000 0.000000 2.309062 0.000000 0.000000 8.520406 0.000000 0.000000 1.905762 0.000000 -0.000000 -4.658285 0.000000 0.000000 -0.000000 0.000000 0.000000 8.520406 0.000000 0.000000 1.905762 0.000000 -0.000000 -4.658285 0.000000 0.000000 -0.000000 0.000000
-9.088684 45.960254 26.311538 161.301978 -16.101427 0.433649 4.173938 9.552173 0.682915 0.255956 0.598436 0.044320 0.437874 1.032595 0.080588 3.860537 8.820791 0.933374 -1.822250 21.947966 -0.947395 -1.741694 -2.283247 -0.599314 1.616319 2.316317 -3.472757 -1.930336 -9.881180 -1.646827 -11.280873 -83.666557 22.879395 -8.897711 -7.900178 -26.669138 -9.711999 0.726956 -3.790400 15.369305 -12.647012 8.042565 45.773878 -63.580028 -64.068495 7.656524 -4.774722 16.556461 -12.224304 -72.379036 11.015209 -68.769570 84.479312 -72.412537 -7.923052 -4.788208 0.329725 0.098470 -0.303355 0.038972 6.027653 -71.336395 13.754993 72.994134 78.417850 69.511380 -11.646022 -5.055887 4.906978 0.082502 0.415083 0.032826
-9.089763 45.959648 26.313215 161.304352 -16.092752 0.438406 4.162202 9.545060 0.680297 0.255644 0.599797 0.044868 0.441962 1.032418 0.077889 3.860439 8.821149 0.932808 -1.817349 21.949783 -0.946486 -1.733774 -2.279513 -0.600427 1.623820 2.317814 -3.472099 -1.930586 -9.880055 -1.650810 -11.324473 -83.657311 22.919161 -8.897025 -7.897129 -26.676187 -9.709613 0.727789 -3.790846 15.363716 -12.647046 8.043027 45.769923 -63.582034 -64.063930 7.659535 -4.778036 16.554638 -12.216914 -72.388661 11.004711 -68.761125 84.476504 -72.403233 -7.922621 -4.788874 0.329048 0.099588 -0.301769 0.039632 6.041772 -71.344538 13.739241 72.974934 78.415444 69.485046 -11.646661 -5.045587 4.911501 0.078928 0.411024 0.033931
-9.090170 45.959352 26.313436 161.304861 -16.093739 0.442368 4.159389 9.546906 0.676740 0.255080 0.602874 0.047215 0.441992 1.030463 0.076161 3.859576 8.822890 0.934716 -1.812485 21.950288 -0.945925 -1.735741 -2.282175 -0.602931 1.631292 2.320961 -3.470454 -1.931103 -9.877143 -1.656025 -11.330284 -83.649809 22.921864 -8.898280 -7.895000 -26.680307 -9.700263 0.730151 -3.791358 15.350416 -12.647150 8.040532 45.760816 -63.583448 -64.057074 7.662059 -4.784584 16.556959 -12.203852 -72.387613 10.992373 -68.762198 84.473340 -72.406396 -7.925084 -4.792031 0.333109 0.093549 -0.299117 0.038407 6.047161 -71.343274 13.734708 72.971808 78.418996 69.475910 -11.644601 -5.042886 4.914989 0.082016 0.411213 0.035206
-9.090580 45.958765 26.313796 161.305416 -16.091873 0.445504 4.156577 9.549939 0.675655 0.256682 0.600197 0.046214 0.441036 1.030788 0.075855 3.859814 8.822578 0.935324 -1.809933 21.950415 -0.945610 -1.731307 -2.280083 -0.601678 1.636530 2.325009 -3.465185 -1.926610 -9.873078 -1.665524 -11.345946 -83.650307 22.930418 -8.894967 -7.858998 -26.690609 -9.697414 0.736886 -3.785945 15.342668 -12.645916 8.032125 45.765808 -63.586696 -64.060384 7.663070 -4.788994 16.559706 -12.187670 -72.391253 10.976964 -68.777249 84.472504 -72.421608 -7.920935 -4.793257 0.336308 0.083175 -0.298406 0.037561 6.047305 -71.345161 13.736381 72.970474 78.423229 69.469440 -11.653580 -5.042047 4.914890 0.083036 0.413081 0.037682
-9.090747 45.957930 26.313900 161.309699 -16.087733 0.445840 4.154835 9.551407 0.682882 0.254824 0.596308 0.039537 0.441681 1.032327 0.078079 3.858011 8.821319 0.933487 -1.806928 21.950762 -0.945158 -1.721274 -2.277539 -0.600573 1.638793 2.327355 -3.460852 -1.917393 -9.869860 -1.678215 -11.379952 -83.646730 22.956598 -8.893842 -7.844302 -26.694954 -9.690023 0.741090 -3.780130 15.327719 -12.638430 8.023160 45.775857 -63.591567 -64.066518 7.664622 -4.787056 16.565757 -12.188209 -72.396572 10.971491 -68.796675 84.474364 -72.438905 -7.912576 -4.796095 0.334266 0.083123 -0.297818 0.038499 6.042866 -71.349492 13.739017 72.964958 78.425515 69.459333 -11.659461 -5.041927 4.917296 0.088968 0.416164 0.038547
-9.091945 45.956719 26.313532 161.315176 -16.076551 0.451544 4.149357 9.542720 0.680172 0.256240 0.598537 0.044235 0.442204 1.032478 0.077905 3.860849 8.819736 0.931747 -1.809614 21.953141 -0.947399 -1.718636 -2.275041 -0.599466 1.638667 2.328531 -3.455245 -1.921728 -9.864934 -1.693294 -11.272473 -83.616525 22.859388 -8.892132 -7.865240 -26.703832 -9.686611 0.740030 -3.775305 15.306936 -12.623083 8.007752 45.754985 -63.587737 -64.042352 7.661335 -4.799241 16.566184 -12.177709 -72.409544 10.954456 -68.823541 84.472592 -72.464673 -7.913557 -4.801460 0.333705 0.105960 -0.294941 0.040416 6.062055 -71.360231 13.715374 72.941883 78.429603 69.433412 -11.662204 -5.036982 4.918556 0.088381 0.416022 0.039908
